<svg id="Capa_1" enable-background="new 0 0 512 512" height="512" viewBox="0 0 512 512" width="512" xmlns="http://www.w3.org/2000/svg"><g id="XMLID_1506_"><g id="XMLID_1416_"><g fill="#ff7d97"><path id="XMLID_1828_" d="m120.392 66h44v99.958h-44z"/><path id="XMLID_1827_" d="m120.392 66h44v99.958h-44z"/><path id="XMLID_1826_" d="m234.127 66h44v99.958h-44z"/><path id="XMLID_1825_" d="m234.127 66h44v99.958h-44z"/><path id="XMLID_1823_" d="m347.862 66h44v99.958h-44z"/><path id="XMLID_1822_" d="m347.862 66h44v99.958h-44z"/></g><path id="XMLID_1805_" d="m158.794 59.206c-9.059 9.059-23.746 9.059-32.804 0-9.059-9.059-9.059-23.745 0-32.804l16.402-16.402 16.402 16.402c9.059 9.059 9.059 23.746 0 32.804z" fill="#ff9171"/><g id="XMLID_1719_"><path id="XMLID_1773_" d="m431.729 285.984h-351.458c-13.404 0-24.271 10.866-24.271 24.27v143.746h400v-143.746c0-13.404-10.866-24.27-24.271-24.27z" fill="#ffcd69"/><path id="XMLID_1520_" d="m431.729 285.984h-351.458c-13.404 0-24.271 10.866-24.271 24.27v21.152h28.571c15.78 0 28.571 12.792 28.571 28.571v5.897c0 15.78 12.792 28.571 28.571 28.571 15.779 0 28.571-12.792 28.571-28.571v-5.897c0-15.78 12.792-28.571 28.571-28.571 15.779 0 28.571 12.792 28.571 28.571v5.897c0 15.78 12.792 28.571 28.571 28.571 15.78 0 28.571-12.792 28.571-28.571v-5.897c0-15.78 12.792-28.571 28.571-28.571 15.78 0 28.571 12.792 28.571 28.571v5.897c0 15.78 12.792 28.571 28.571 28.571 15.78 0 28.571-12.792 28.571-28.571v-5.897c0-15.78 12.792-28.571 28.571-28.571h28.577v-21.152c0-13.404-10.866-24.27-24.271-24.27z" fill="#c68a65"/></g><path id="XMLID_1716_" d="m391.729 165.959h-271.458c-13.404 0-24.271 10.867-24.271 24.271v95.754h320v-95.754c0-13.405-10.866-24.271-24.271-24.271z" fill="#d1a184"/><path id="XMLID_1467_" d="m272.529 59.206c-9.059 9.059-23.746 9.059-32.804 0-9.059-9.059-9.059-23.745 0-32.804l16.402-16.402 16.402 16.402c9.059 9.059 9.059 23.746 0 32.804z" fill="#ff9171"/><path id="XMLID_1444_" d="m386.264 59.206c-9.059 9.059-23.745 9.059-32.804 0-9.058-9.059-9.058-23.745 0-32.804l16.402-16.402 16.402 16.402c9.059 9.059 9.059 23.746 0 32.804z" fill="#ff9171"/><path id="XMLID_1804_" d="m435.077 502h-358.154c-26.51 0-48-21.49-48-48h454.154c0 26.51-21.49 48-48 48z" fill="#cbf4fb"/></g><g id="XMLID_992_"><path id="XMLID_995_" d="m483.077 444h-17.077v-133.745c0-18.897-15.374-34.271-34.271-34.271h-5.729v-85.754c0-15.371-10.172-28.409-24.138-32.741v-91.489c0-2.781-1.137-5.296-2.97-7.108 6.987-12.622 5.142-28.863-5.557-39.561l-16.402-16.402c-3.905-3.905-10.237-3.904-14.142 0l-16.402 16.402c-10.698 10.699-12.544 26.939-5.557 39.561-1.833 1.813-2.97 4.327-2.97 7.108v89.958h-49.735v-89.958c0-2.781-1.137-5.296-2.97-7.108 6.987-12.622 5.141-28.862-5.557-39.561l-16.402-16.402c-3.905-3.905-10.237-3.905-14.143 0l-16.402 16.402c-10.698 10.699-12.544 26.939-5.557 39.561-1.833 1.813-2.97 4.327-2.97 7.108v89.958h-49.735v-89.958c0-2.781-1.137-5.296-2.97-7.108 6.987-12.622 5.141-28.862-5.557-39.561l-16.4-16.402c-3.906-3.904-10.237-3.904-14.142 0l-16.403 16.402c-10.698 10.699-12.544 26.939-5.557 39.561-1.833 1.813-2.97 4.327-2.97 7.108v91.416c-14.095 4.252-24.392 17.35-24.392 32.813v85.754h-5.729c-18.897.001-34.271 15.375-34.271 34.272v133.745h-17.077c-5.523 0-10 4.477-10 10 0 31.981 26.018 58 58 58h358.154c31.981 0 58-26.019 58-58 0-5.523-4.477-10-10-10zm-122.546-410.527 9.331-9.331 9.331 9.331c5.146 5.145 5.146 13.517 0 18.662-5.144 5.145-13.517 5.146-18.662 0-5.145-5.145-5.145-13.517 0-18.662zm-2.669 42.527h24v79.958h-24zm-111.065-42.527 9.331-9.331 9.33 9.331c5.146 5.145 5.146 13.517 0 18.662-5.144 5.146-13.517 5.146-18.661 0-5.146-5.145-5.146-13.517 0-18.662zm-2.67 42.527h24v79.958h-24zm-113.735 0h24v79.958h-24zm2.669-42.527 9.332-9.331 9.331 9.331c5.146 5.145 5.146 13.517 0 18.662-5.145 5.146-13.518 5.145-18.662 0-5.146-5.145-5.146-13.517-.001-18.662zm-27.061 156.756c0-7.869 6.402-14.271 14.271-14.271h.121 271.337c7.869 0 14.271 6.402 14.271 14.271v85.754h-300zm-25.729 105.755h351.458c7.869 0 14.271 6.402 14.271 14.271v11.152h-18.571c-21.268 0-38.572 17.303-38.572 38.571v5.897c0 10.24-8.331 18.571-18.571 18.571s-18.571-8.331-18.571-18.571v-5.897c0-21.268-17.303-38.571-38.571-38.571-21.269 0-38.572 17.303-38.572 38.571v5.897c0 10.24-8.331 18.571-18.571 18.571s-18.571-8.331-18.571-18.571v-5.897c0-21.268-17.303-38.571-38.572-38.571-21.268 0-38.571 17.303-38.571 38.571v5.897c0 10.24-8.331 18.571-18.571 18.571s-18.571-8.331-18.571-18.571v-5.897c0-21.268-17.303-38.571-38.572-38.571h-18.573v-11.152c0-7.869 6.402-14.271 14.271-14.271zm354.806 196.016h-358.154c-17.494 0-32.265-11.882-36.665-28h170.742c5.523 0 10-4.477 10-10s-4.477-10-10-10h-145v-102.593h18.571c10.241 0 18.572 8.331 18.572 18.571v5.897c0 21.268 17.303 38.571 38.571 38.571s38.571-17.303 38.571-38.571v-5.897c0-10.24 8.331-18.571 18.571-18.571 10.241 0 18.572 8.331 18.572 18.571v5.897c0 21.268 17.303 38.571 38.571 38.571s38.571-17.303 38.571-38.571v-5.897c0-10.24 8.331-18.571 18.572-18.571 10.24 0 18.571 8.331 18.571 18.571v5.897c0 21.268 17.303 38.571 38.571 38.571s38.571-17.303 38.571-38.571v-5.897c0-10.24 8.331-18.571 18.572-18.571h18.573v102.593h-145c-5.523 0-10 4.477-10 10s4.477 10 10 10h170.742c-4.4 16.118-19.171 28-36.665 28z"/><path id="XMLID_2412_" d="m256 444c-2.63 0-5.21 1.07-7.07 2.93s-2.93 4.44-2.93 7.07 1.07 5.21 2.93 7.07 4.44 2.93 7.07 2.93 5.21-1.07 7.07-2.93 2.93-4.44 2.93-7.07-1.07-5.21-2.93-7.07-4.44-2.93-7.07-2.93z"/></g></g></svg>