<?xml version="1.0" encoding="iso-8859-1"?>
<!-- Generator: Adobe Illustrator 19.0.0, SVG Export Plug-In . SVG Version: 6.00 Build 0)  -->
<svg version="1.1" id="Capa_1" xmlns="http://www.w3.org/2000/svg" xmlns:xlink="http://www.w3.org/1999/xlink" x="0px" y="0px"
	 viewBox="0 0 496 496" style="enable-background:new 0 0 496 496;" xml:space="preserve">
<path style="fill:#F0BC5E;" d="M328,96H56c-4.424,0-8-3.576-8-8V40c0-4.424,3.576-8,8-8h272c4.424,0,8,3.576,8,8v48
	C336,92.424,332.424,96,328,96z"/>
<rect x="320" y="112" width="16" height="16"/>
<rect x="320" y="144" width="16" height="16"/>
<rect x="320" y="176" width="16" height="16"/>
<path d="M0,0v347.312L116.688,464H320.96v-16H128v-32h104V272H64v64H16V16h352v144h16V0H0z M112,436.688L27.312,352H112V436.688z
	 M80,288h136v112h-88v-64H80V288z"/>
<rect x="96" y="304" width="104" height="16"/>
<rect x="144" y="336" width="56" height="16"/>
<rect x="144" y="368" width="56" height="16"/>
<rect x="48" y="112" width="256" height="16"/>
<rect x="48" y="144" width="256" height="16"/>
<rect x="48" y="176" width="256" height="16"/>
<rect x="48" y="208" width="152" height="16"/>
<rect x="48" y="240" width="152" height="16"/>
<rect x="216" y="208" width="16" height="16"/>
<rect x="216" y="240" width="16" height="16"/>
<path style="fill:#F0BC5E;" d="M376,496c-1.368,0-2.744-0.352-3.968-1.056l-63.632-36.36c-32.32-18.472-52.4-53.072-52.4-90.296V248
	c0-4.424,3.576-8,8-8h22.312c33.44,0,64.48-16.608,83.032-44.44c2.968-4.456,10.344-4.456,13.312,0
	c18.552,27.832,49.592,44.44,83.032,44.44H488c4.424,0,8,3.576,8,8v120.288c0,37.224-20.08,71.824-52.4,90.296l-63.632,36.36
	C378.744,495.648,377.368,496,376,496z"/>
<path d="M427.72,430.808l-7.936-13.888c17.4-9.952,28.216-28.584,28.216-48.632V352h16v16.288
	C464,394.064,450.096,418.016,427.72,430.808z"/>
<rect x="448" y="320" width="16" height="16"/>
<polygon points="336,403.312 298.344,365.656 309.656,354.344 336,380.688 442.344,274.344 453.656,285.656 "/>
<g>
</g>
<g>
</g>
<g>
</g>
<g>
</g>
<g>
</g>
<g>
</g>
<g>
</g>
<g>
</g>
<g>
</g>
<g>
</g>
<g>
</g>
<g>
</g>
<g>
</g>
<g>
</g>
<g>
</g>
</svg>
