<svg id="Capa_1" enable-background="new 0 0 512 512" height="512" viewBox="0 0 512 512" width="512" xmlns="http://www.w3.org/2000/svg"><g><g><path d="m193.41 212.881c0-58.174 47.328-105.502 105.502-105.502l17.244-13.872-17.244-16.128c-74.716 0-135.502 60.786-135.502 135.502s60.786 135.502 135.502 135.502l17.244-17.424-17.244-12.576c-58.174 0-105.502-47.328-105.502-105.502" fill="#7cdcc0"/></g><g><path d="m30.207 212.881c0-58.174 47.328-105.502 105.502-105.502l13.067-13.872-13.067-16.128c-74.716 0-135.502 60.786-135.502 135.502 0 69.646 52.819 127.179 120.502 134.667v84.226h-40.458v30h40.458v50.226h15l9.09-65.38-9.09-128.237c-58.174 0-105.502-47.328-105.502-105.502z" fill="#df5b5b"/><path d="m271.211 212.881-15.211-10.7-14.789 10.7c0 58.174-47.328 105.502-105.502 105.502v193.617h15v-50.226h40.457v-30h-40.457v-84.226c67.683-7.488 120.502-65.021 120.502-134.667z" fill="#c30048"/></g><path d="m271.211 212.881c0-74.716-60.786-135.502-135.502-135.502v30c58.174 0 105.502 47.328 105.502 105.502z" fill="#c30048"/><path d="m193.41 212.881h-30c0 74.716 60.786 135.502 135.502 135.502v-30c-58.174 0-105.502-47.328-105.502-105.502z" fill="#7cdcc0"/><path d="m401.175 0v30h59.405l-77.095 77.095c-23.197-18.583-52.607-29.717-84.573-29.717v30c58.174 0 105.502 47.328 105.502 105.502s-47.328 105.502-105.502 105.502v30c74.716 0 135.502-60.786 135.502-135.502 0-31.966-11.133-61.375-29.716-84.573l77.095-77.095v59.405h30v-110.617z" fill="#65b4bb"/></g></svg>